<svg width="24" height="24" viewBox="0 0 24 24" fill="none" xmlns="http://www.w3.org/2000/svg">
<path d="M8.53417 4.97008C8.32655 4.96623 8.12287 5.02701 7.95131 5.144C7.77975 5.26099 7.6488 5.42842 7.57657 5.6231C7.50434 5.81779 7.49441 6.03011 7.54815 6.23069C7.60189 6.43127 7.71664 6.61018 7.87653 6.74268L13.9956 11.9811L7.87275 17.2195C7.76089 17.3011 7.66715 17.4049 7.59745 17.5245C7.52774 17.6441 7.48358 17.7768 7.46775 17.9144C7.45192 18.0519 7.46477 18.1912 7.50549 18.3235C7.54621 18.4558 7.61391 18.5782 7.70432 18.683C7.79472 18.7879 7.90588 18.8728 8.03077 18.9325C8.15566 18.9922 8.29156 19.0254 8.42992 19.0299C8.56827 19.0345 8.70605 19.0103 8.83459 18.9589C8.96312 18.9075 9.0796 18.83 9.17669 18.7313L16.1764 12.7483C16.2865 12.6543 16.3748 12.5375 16.4355 12.4061C16.4961 12.2746 16.5274 12.1315 16.5274 11.9868C16.5274 11.842 16.4961 11.699 16.4355 11.5675C16.3748 11.436 16.2865 11.3192 16.1764 11.2252L9.17669 5.22331C8.99931 5.06539 8.77159 4.97565 8.53417 4.97008Z" fill="black"/>
</svg>
