<svg width="24" height="24" viewBox="0 0 24 24" fill="none" xmlns="http://www.w3.org/2000/svg">
<path d="M22 11H4.41403L9.70703 5.707C9.80254 5.61475 9.87872 5.50441 9.93113 5.3824C9.98354 5.2604 10.0111 5.12918 10.0123 4.9964C10.0134 4.86362 9.98813 4.73194 9.93785 4.60905C9.88757 4.48615 9.81332 4.3745 9.71943 4.2806C9.62553 4.18671 9.51388 4.11246 9.39098 4.06218C9.26809 4.0119 9.13641 3.98659 9.00363 3.98775C8.87085 3.9889 8.73963 4.01649 8.61763 4.0689C8.49562 4.12131 8.38528 4.19749 8.29303 4.293L1.29303 11.293C1.10556 11.4805 1.00024 11.7348 1.00024 12C1.00024 12.2652 1.10556 12.5195 1.29303 12.707L8.29303 19.707C8.48163 19.8892 8.73423 19.99 8.99643 19.9877C9.25863 19.9854 9.50944 19.8802 9.69485 19.6948C9.88026 19.5094 9.98543 19.2586 9.9877 18.9964C9.98998 18.7342 9.88919 18.4816 9.70703 18.293L4.41403 13H22C22.2652 13 22.5196 12.8946 22.7071 12.7071C22.8947 12.5196 23 12.2652 23 12C23 11.7348 22.8947 11.4804 22.7071 11.2929C22.5196 11.1054 22.2652 11 22 11Z" fill="black"/>
</svg>
