<svg width="17" height="23" viewBox="0 0 17 23" fill="#9E9E9E" xmlns="http://www.w3.org/2000/svg">
<path d="M8.17007 0C6.9766 0 5.83201 0.474106 4.98809 1.31802C4.14418 2.16193 3.67007 3.30653 3.67007 4.5V5.25H3.04757C2.41616 5.24934 1.80882 5.49222 1.35199 5.9281C0.895156 6.36398 0.624038 6.95925 0.595074 7.59L0.0025741 19.9275C-0.0126145 20.2593 0.039531 20.5907 0.155867 20.9017C0.272204 21.2128 0.450322 21.4971 0.679485 21.7375C0.908648 21.9778 1.18411 22.1693 1.48927 22.3004C1.79443 22.4314 2.12297 22.4993 2.45507 22.5H13.8851C14.2172 22.4993 14.5457 22.4314 14.8509 22.3004C15.156 22.1693 15.4315 21.9778 15.6607 21.7375C15.8898 21.4971 16.0679 21.2128 16.1843 20.9017C16.3006 20.5907 16.3528 20.2593 16.3376 19.9275L15.7451 7.59C15.7161 6.95925 15.445 6.36398 14.9882 5.9281C14.5313 5.49222 13.924 5.24934 13.2926 5.25H12.6701V4.5C12.6701 3.30653 12.196 2.16193 11.3521 1.31802C10.5081 0.474106 9.36355 0 8.17007 0ZM5.17007 4.5C5.17007 3.70435 5.48614 2.94129 6.04875 2.37868C6.61136 1.81607 7.37442 1.5 8.17007 1.5C8.96572 1.5 9.72878 1.81607 10.2914 2.37868C10.854 2.94129 11.1701 3.70435 11.1701 4.5V5.25H5.17007V4.5ZM3.94007 8.3925C3.94007 8.24416 3.98406 8.09916 4.06647 7.97582C4.14888 7.85249 4.26602 7.75636 4.40306 7.69959C4.54011 7.64283 4.69091 7.62797 4.83639 7.65691C4.98188 7.68585 5.11552 7.75728 5.2204 7.86217C5.32529 7.96706 5.39672 8.1007 5.42566 8.24618C5.4546 8.39167 5.43975 8.54247 5.38298 8.67951C5.32622 8.81656 5.23009 8.93369 5.10675 9.0161C4.98342 9.09851 4.83841 9.1425 4.69007 9.1425C4.49116 9.1425 4.3004 9.06348 4.15974 8.92283C4.01909 8.78218 3.94007 8.59141 3.94007 8.3925ZM10.9001 8.3925C10.9001 8.24416 10.9441 8.09916 11.0265 7.97582C11.1089 7.85249 11.226 7.75636 11.3631 7.69959C11.5001 7.64283 11.6509 7.62797 11.7964 7.65691C11.9419 7.68585 12.0755 7.75728 12.1804 7.86217C12.2853 7.96706 12.3567 8.1007 12.3857 8.24618C12.4146 8.39167 12.3997 8.54247 12.343 8.67951C12.2862 8.81656 12.1901 8.93369 12.0668 9.0161C11.9434 9.09851 11.7984 9.1425 11.6501 9.1425C11.4512 9.1425 11.2604 9.06348 11.1197 8.92283C10.9791 8.78218 10.9001 8.59141 10.9001 8.3925Z" />
</svg>
