<svg width="23" height="23" viewBox="0 0 23 23" fill="none" xmlns="http://www.w3.org/2000/svg">
<path d="M18.75 15.0121C18.182 15.0127 17.6216 15.1422 17.111 15.391C16.6004 15.6398 16.153 16.0014 15.8025 16.4484L7.36875 12.2334C7.54133 11.5974 7.54133 10.9269 7.36875 10.2909L15.8025 6.07586C17.9625 8.84711 22.5 7.32087 22.5 3.76212C22.5017 3.22725 22.389 2.69821 22.1694 2.2105C21.9499 1.72279 21.6285 1.28769 21.2269 0.934411C20.8253 0.581133 20.3528 0.317848 19.8411 0.16223C19.3294 0.00661263 18.7903 -0.0377377 18.26 0.0321563C17.7297 0.10205 17.2205 0.284571 16.7666 0.567468C16.3127 0.850365 15.9245 1.22709 15.6282 1.67236C15.3318 2.11763 15.1342 2.62114 15.0485 3.14909C14.9628 3.67704 14.991 4.21722 15.1312 4.73337L6.6975 8.94837C4.5375 6.17711 0 7.70337 0 11.2621C0 14.8209 4.5375 16.3471 6.6975 13.5759L15.1312 17.7909C14.9823 18.3462 14.9631 18.9284 15.0751 19.4924C15.1871 20.0564 15.4272 20.587 15.777 21.0434C16.1268 21.4997 16.5768 21.8695 17.0923 22.1242C17.6078 22.3789 18.175 22.5116 18.75 22.5121C23.7262 22.3059 23.7225 15.2184 18.75 15.0121Z" fill="black" fill-opacity="0.75"/>
</svg>
