<svg width="24" height="24" viewBox="0 0 24 24" fill="none" xmlns="http://www.w3.org/2000/svg">
<path d="M12 0.75C10.8066 0.75 9.66196 1.22411 8.81805 2.06802C7.97414 2.91193 7.50003 4.05653 7.50003 5.25V6H6.87753C6.24612 5.99934 5.63878 6.24222 5.18194 6.6781C4.72511 7.11398 4.45399 7.70925 4.42503 8.34L3.83253 20.6775C3.81734 21.0093 3.86949 21.3407 3.98582 21.6517C4.10216 21.9628 4.28028 22.2471 4.50944 22.4875C4.7386 22.7278 5.01407 22.9193 5.31923 23.0504C5.62439 23.1814 5.95292 23.2493 6.28503 23.25H17.715C18.0471 23.2493 18.3757 23.1814 18.6808 23.0504C18.986 22.9193 19.2615 22.7278 19.4906 22.4875C19.7198 22.2471 19.8979 21.9628 20.0142 21.6517C20.1306 21.3407 20.1827 21.0093 20.1675 20.6775L19.575 8.34C19.5461 7.70925 19.2749 7.11398 18.8181 6.6781C18.3613 6.24222 17.7539 5.99934 17.1225 6H16.5V5.25C16.5 4.05653 16.0259 2.91193 15.182 2.06802C14.3381 1.22411 13.1935 0.75 12 0.75ZM9.00003 5.25C9.00003 4.45435 9.3161 3.69129 9.87871 3.12868C10.4413 2.56607 11.2044 2.25 12 2.25C12.7957 2.25 13.5587 2.56607 14.1213 3.12868C14.684 3.69129 15 4.45435 15 5.25V6H9.00003V5.25ZM7.77003 9.1425C7.77003 8.99416 7.81402 8.84916 7.89643 8.72582C7.97884 8.60249 8.09597 8.50636 8.23302 8.44959C8.37006 8.39283 8.52086 8.37797 8.66635 8.40691C8.81183 8.43585 8.94547 8.50728 9.05036 8.61217C9.15525 8.71706 9.22668 8.8507 9.25562 8.99618C9.28456 9.14167 9.26971 9.29247 9.21294 9.42951C9.15617 9.56656 9.06004 9.68369 8.93671 9.7661C8.81337 9.84851 8.66837 9.8925 8.52003 9.8925C8.32112 9.8925 8.13035 9.81348 7.9897 9.67283C7.84905 9.53218 7.77003 9.34141 7.77003 9.1425ZM14.73 9.1425C14.73 8.99416 14.774 8.84916 14.8564 8.72582C14.9388 8.60249 15.056 8.50636 15.193 8.44959C15.3301 8.39283 15.4809 8.37797 15.6263 8.40691C15.7718 8.43585 15.9055 8.50728 16.0104 8.61217C16.1152 8.71706 16.1867 8.8507 16.2156 8.99618C16.2446 9.14167 16.2297 9.29247 16.1729 9.42951C16.1162 9.56656 16.02 9.68369 15.8967 9.7661C15.7734 9.84851 15.6284 9.8925 15.48 9.8925C15.2811 9.8925 15.0904 9.81348 14.9497 9.67283C14.809 9.53218 14.73 9.34141 14.73 9.1425Z" fill="#9E9E9E"/>
</svg>
