<svg width="17" height="20" viewBox="0 0 17 20" fill="none" xmlns="http://www.w3.org/2000/svg">
<path d="M15.1048 5.16719C15.1391 4.88859 15.1563 4.60816 15.1564 4.32746C15.1564 1.9375 13.2189 0 10.8289 0H3.59678C3.14186 0 2.75346 0.328516 2.67799 0.777109L0.0131484 16.616C-0.0824766 17.1843 0.355649 17.7023 0.931938 17.7023H3.5769C4.03182 17.7023 4.42752 17.374 4.50295 16.9254L4.51534 16.8517H4.51538L4.14678 19.0426C4.06256 19.5435 4.4487 20 4.95662 20H7.27057C7.67155 20 8.01389 19.7104 8.08037 19.315L8.73776 15.408C8.85108 14.7345 9.43417 14.2413 10.1171 14.2413H10.725C14.0269 14.2413 16.7037 11.5646 16.7037 8.26266C16.7037 6.98496 16.0721 5.85555 15.1048 5.16719Z" fill="#002987"/>
<path d="M15.1048 5.16718C14.691 8.53354 11.8218 11.1402 8.34363 11.1402H6.32547C5.86996 11.1402 5.47656 11.4436 5.35316 11.8726L4.14684 19.0425C4.06258 19.5434 4.44871 20 4.95664 20H7.27059C7.67156 20 8.01391 19.7104 8.08039 19.315L8.73777 15.408C8.8511 14.7345 9.43418 14.2413 10.1171 14.2413H10.725C14.027 14.2413 16.7037 11.5646 16.7037 8.26264C16.7037 6.98495 16.0721 5.85553 15.1048 5.16718Z" fill="#0085CC"/>
<path d="M6.32549 11.1402H8.34366C11.8219 11.1402 14.691 8.53356 15.1048 5.16723C14.4842 4.72559 13.7258 4.46497 12.906 4.46497H7.63842C7.0387 4.46497 6.52663 4.89805 6.42709 5.48946L5.35315 11.8726C5.47655 11.4436 5.86999 11.1402 6.32549 11.1402Z" fill="#00186A"/>
</svg>
