<svg width="24" height="24" viewBox="0 0 24 24" fill="none" xmlns="http://www.w3.org/2000/svg">
<g clip-path="url(#clip0_16_70)">
<path d="M23.4316 20.5276L17.9139 15.0094C18.8841 13.4672 19.3978 11.6817 19.3955 9.85959C19.3955 4.50347 15.0535 0.162045 9.69755 0.162045C4.34163 0.162045 0 4.50347 0 9.85959C0 15.2159 4.34143 19.5569 9.69755 19.5569C11.6785 19.5595 13.6123 18.9525 15.2365 17.8183L20.6886 23.2708C20.8686 23.4509 21.0825 23.5937 21.3178 23.691C21.5532 23.7883 21.8055 23.8382 22.0601 23.8378C22.3149 23.8382 22.5672 23.7883 22.8027 23.6911C23.0382 23.5938 23.2521 23.451 23.4322 23.2708C23.7959 22.9069 24.0001 22.4135 23.9999 21.8991C23.9998 21.3846 23.7954 20.8913 23.4316 20.5276ZM9.69755 16.4151C6.07744 16.4151 3.14247 13.4803 3.14247 9.86C3.14247 6.23968 6.07744 3.30472 9.69755 3.30472C13.3179 3.30472 16.2526 6.23968 16.2526 9.86C16.2526 13.4803 13.3179 16.4151 9.69755 16.4151Z" fill="#5F5D5D"/>
</g>
<defs>
<clipPath id="clip0_16_70">
<rect width="24" height="24" fill="white"/>
</clipPath>
</defs>
</svg>
