<svg width="22" height="24" viewBox="0 0 22 24" fill="none" xmlns="http://www.w3.org/2000/svg">
<path d="M10.5469 0C7.05755 0 4.21875 2.8388 4.21875 6.32812C4.21875 9.81745 7.05755 12.6562 10.5469 12.6562C14.0362 12.6562 16.875 9.81745 16.875 6.32812C16.875 2.8388 14.0362 0 10.5469 0ZM18.4203 16.7904C16.6878 15.0313 14.391 14.0625 11.9531 14.0625H9.14062C6.70275 14.0625 4.40597 15.0313 2.67347 16.7904C0.949453 18.5409 0 20.8515 0 23.2969C0 23.6852 0.314812 24 0.703125 24H20.3906C20.7789 24 21.0938 23.6852 21.0938 23.2969C21.0938 20.8515 20.1443 18.5409 18.4203 16.7904Z" fill="black" fill-opacity="0.75"/>
</svg>
