<svg width="24" height="24" viewBox="0 0 24 24" fill="none" xmlns="http://www.w3.org/2000/svg">
<path d="M12 13.92C13.0603 13.92 13.92 13.0604 13.92 12C13.92 10.9396 13.0603 10.08 12 10.08C10.9396 10.08 10.08 10.9396 10.08 12C10.08 13.0604 10.9396 13.92 12 13.92Z" fill="black"/>
<path d="M12 20.04C13.0603 20.04 13.92 19.1804 13.92 18.12C13.92 17.0596 13.0603 16.2 12 16.2C10.9396 16.2 10.08 17.0596 10.08 18.12C10.08 19.1804 10.9396 20.04 12 20.04Z" fill="black"/>
<path d="M12 7.8C13.0603 7.8 13.92 6.94039 13.92 5.88C13.92 4.81961 13.0603 3.96 12 3.96C10.9396 3.96 10.08 4.81961 10.08 5.88C10.08 6.94039 10.9396 7.8 12 7.8Z" fill="black"/>
</svg>
