<svg width="10" height="10" viewBox="0 0 10 10" fill="none" xmlns="http://www.w3.org/2000/svg">
<path d="M2.22451 8.34578C1.75126 7.81428 1.36901 7.29428 0.999765 6.79078C0.662404 6.33284 0.369889 5.84351 0.126265 5.32953C-0.0262354 5.01753 -0.0937354 4.70203 0.236515 4.49878C1.18326 3.91703 1.37726 4.47253 1.89151 5.11703C2.19651 5.49903 2.64651 6.12878 2.92826 6.52678C3.19751 6.90678 3.52576 6.22103 3.65651 6.02728C4.12226 5.33978 5.33227 3.65578 5.83252 3.03353C6.30727 2.44253 7.83951 0.787283 8.12501 0.524033C8.36826 0.299783 8.88176 -0.191717 9.22701 0.0795331C9.58951 0.364533 9.76701 0.906283 9.51201 1.25853C9.06776 1.87178 8.37027 2.45503 7.88751 3.03903C6.91051 4.22103 5.98551 5.49503 5.09751 6.76378C4.79576 7.19478 4.37226 7.91678 4.10926 8.38428C3.61726 9.25903 3.18526 9.42528 2.22426 8.34578H2.22451Z" fill="#6055D8"/>
</svg>
